{
  "asset": {
    "version": "2.0",
    "generator": "THREE.GLTFExporter"
  },
  "scenes": [
    {
      "nodes": [
        3,
        5,
        6
      ],
      "name": "defaultScene"
    }
  ],
  "scene": 0,
  "nodes": [
    {
      "name": "node_MeshObject62876672-PolyPaper21",
      "mesh": 0
    },
    {
      "matrix": [
        1,
        0,
        0,
        0,
        0,
        1,
        0,
        0,
        0,
        0,
        1,
        0,
        -0.3274285555036693,
        -0.8112385905439625,
        0.6775773276508748,
        1
      ],
      "children": [
        0
      ]
    },
    {
      "matrix": [
        1,
        0,
        0,
        0,
        0,
        1,
        0,
        0,
        0,
        0,
        1,
        0,
        0.3274285555036693,
        0.8112385905439625,
        -0.6775773276508748,
        1
      ],
      "extras": {
        "isTransformNode": 1
      },
      "children": [
        1
      ]
    },
    {
      "children": [
        2
      ]
    },
    {
      "matrix": [
        1,
        0,
        0,
        0,
        0,
        1,
        0,
        0,
        0,
        0,
        1,
        0,
        -0.5922482956218061,
        0.2961241478109031,
        0.2961241478109031,
        1
      ],
      "name": "headLightNode",
      "extras": {
        "isHeadLight": 1,
        "gltfExtensions": {
          "KHR_lights_punctual": {
            "light": 0
          }
        }
      }
    },
    {
      "matrix": [
        0.6992422453819375,
        -8.326672684688674e-17,
        0.7148848034985963,
        0,
        0.4312795670847758,
        0.7975253738960604,
        -0.42184264010068695,
        0,
        -0.5701387702028297,
        0.6032854034302084,
        0.5576634331921505,
        0,
        -0.767457543740448,
        1.969831099727001,
        0.3933257916001313,
        1
      ],
      "camera": 0,
      "children": [
        4
      ]
    },
    {
      "matrix": [
        0,
        0,
        0,
        0,
        0,
        0,
        0,
        0,
        -0.2442021977599163,
        0.4884043955198326,
        -0.2442021977599164,
        0,
        -0.2703617548817995,
        1.978172588964535,
        -1.294384901466776,
        1
      ],
      "name": "keyLightNode",
      "extras": {
        "isKeyLight": 1,
        "gltfExtensions": {
          "KHR_lights_punctual": {
            "light": 1
          }
        }
      }
    }
  ],
  "bufferViews": [
    {
      "buffer": 0,
      "byteOffset": 0,
      "byteLength": 19968,
      "target": 34962,
      "byteStride": 16
    },
    {
      "buffer": 0,
      "byteOffset": 19968,
      "byteLength": 14976,
      "target": 34962,
      "byteStride": 12
    },
    {
      "buffer": 0,
      "byteOffset": 34944,
      "byteLength": 14976,
      "target": 34962,
      "byteStride": 12
    },
    {
      "buffer": 0,
      "byteOffset": 49920,
      "byteLength": 3792,
      "target": 34963
    }
  ],
  "buffers": [
    {
      "byteLength": 53712,
      "uri": "data:application/octet-stream;base64,"
    }
  ],
  "accessors": [
    {
      "bufferView": 0,
      "componentType": 5126,
      "count": 1248,
      "max": [
        1,
        1,
        1,
        1
      ],
      "min": [
        0,
        0.006584956776350737,
        0,
        1
      ],
      "type": "VEC4"
    },
    {
      "bufferView": 1,
      "componentType": 5126,
      "count": 1248,
      "max": [
        0.9995949268341064,
        0.9991521239280701,
        0.9980394244194031
      ],
      "min": [
        -0.9985421895980835,
        -0.9994880557060242,
        -0.9975923895835876
      ],
      "type": "VEC3"
    },
    {
      "bufferView": 2,
      "componentType": 5126,
      "count": 1248,
      "max": [
        0.6393183469772339,
        1.289190411567688,
        -0.3448440134525299
      ],
      "min": [
        -0.023164507001638412,
        0.3770410716533661,
        -1.2061234712600708
      ],
      "type": "VEC3"
    },
    {
      "bufferView": 3,
      "componentType": 5123,
      "count": 1896,
      "max": [
        1247
      ],
      "min": [
        0
      ],
      "type": "SCALAR"
    }
  ],
  "materials": [
    {
      "pbrMetallicRoughness": {
        "metallicFactor": 0,
        "roughnessFactor": 0.6
      },
      "name": "BlocksPaper"
    }
  ],
  "meshes": [
    {
      "primitives": [
        {
          "mode": 4,
          "attributes": {
            "COLOR_0": 0,
            "NORMAL": 1,
            "POSITION": 2
          },
          "indices": 3,
          "material": 0
        }
      ]
    }
  ],
  "cameras": [
    {
      "type": "perspective",
      "perspective": {
        "aspectRatio": 1,
        "yfov": 0.7853981633974483,
        "zfar": 2000000,
        "znear": 0.1000000014901161
      }
    }
  ]
}