{
  "asset": {
    "version": "2.0",
    "generator": "THREE.GLTFExporter"
  },
  "scenes": [
    {
      "nodes": [
        3,
        5,
        6
      ],
      "name": "defaultScene"
    }
  ],
  "scene": 0,
  "nodes": [
    {
      "name": "node_MeshObject521534080-PolyPaper8",
      "mesh": 0
    },
    {
      "matrix": [
        1,
        0,
        0,
        0,
        0,
        1,
        0,
        0,
        0,
        0,
        1,
        0,
        0.004534639887635576,
        -1.174004184185492,
        -0.122138823830034,
        1
      ],
      "children": [
        0
      ]
    },
    {
      "matrix": [
        1,
        0,
        0,
        0,
        0,
        1,
        0,
        0,
        0,
        0,
        1,
        0,
        -0.004534639887635576,
        1.174004184185492,
        0.122138823830034,
        1
      ],
      "extras": {
        "isTransformNode": 1
      },
      "children": [
        1
      ]
    },
    {
      "children": [
        2
      ]
    },
    {
      "matrix": [
        1,
        0,
        0,
        0,
        0,
        1,
        0,
        0,
        0,
        0,
        1,
        0,
        -0.1947760436090703,
        0.09738802180453517,
        0.09738802180453517,
        1
      ],
      "name": "headLightNode",
      "extras": {
        "isHeadLight": 1,
        "gltfExtensions": {
          "KHR_lights_punctual": {
            "light": 0
          }
        }
      }
    },
    {
      "matrix": [
        0.9669368635291471,
        -8.673617379884035e-19,
        0.25501588567855055,
        0,
        0.012006760335775479,
        0.9988910088005474,
        -0.04552570969972876,
        0,
        -0.25473307530561246,
        0.04708240156815206,
        0.9658645390570669,
        0,
        -0.1530154101924837,
        1.201436309929714,
        0.6851414185088698,
        1
      ],
      "camera": 0,
      "children": [
        4
      ]
    },
    {
      "matrix": [
        0,
        0,
        0,
        0,
        0,
        0,
        0,
        0,
        -0.08031215669498494,
        0.16062431338996988,
        -0.08031215669498498,
        0,
        -0.2015820922416536,
        1.589943668451355,
        -0.06254413396494243,
        1
      ],
      "name": "keyLightNode",
      "extras": {
        "isKeyLight": 1,
        "gltfExtensions": {
          "KHR_lights_punctual": {
            "light": 1
          }
        }
      }
    }
  ],
  "bufferViews": [
    {
      "buffer": 0,
      "byteOffset": 0,
      "byteLength": 1472,
      "target": 34962,
      "byteStride": 16
    },
    {
      "buffer": 0,
      "byteOffset": 1472,
      "byteLength": 1104,
      "target": 34962,
      "byteStride": 12
    },
    {
      "buffer": 0,
      "byteOffset": 2576,
      "byteLength": 1104,
      "target": 34962,
      "byteStride": 12
    },
    {
      "buffer": 0,
      "byteOffset": 3680,
      "byteLength": 216,
      "target": 34963
    }
  ],
  "buffers": [
    {
      "byteLength": 3896,
      "uri": "data:application/octet-stream;base64,"
    }
  ],
  "accessors": [
    {
      "bufferView": 0,
      "componentType": 5126,
      "count": 92,
      "max": [
        0.9075471758842468,
        0.05284162983298302,
        0.0328759141266346,
        1
      ],
      "min": [
        0.9075471758842468,
        0.05284162983298302,
        0.0328759141266346,
        1
      ],
      "type": "VEC4"
    },
    {
      "bufferView": 1,
      "componentType": 5126,
      "count": 92,
      "max": [
        0.9996364116668701,
        0.7809135317802429,
        0.9935019612312317
      ],
      "min": [
        -0.9996364712715149,
        -0.7397269606590271,
        -0.9973768591880798
      ],
      "type": "VEC3"
    },
    {
      "bufferView": 2,
      "componentType": 5126,
      "count": 92,
      "max": [
        0.11891492456197739,
        1.2944653034210205,
        0.19067078828811646
      ],
      "min": [
        -0.12437658756971359,
        1.026845932006836,
        0.05701097100973129
      ],
      "type": "VEC3"
    },
    {
      "bufferView": 3,
      "componentType": 5123,
      "count": 108,
      "max": [
        91
      ],
      "min": [
        0
      ],
      "type": "SCALAR"
    }
  ],
  "materials": [
    {
      "pbrMetallicRoughness": {
        "metallicFactor": 0,
        "roughnessFactor": 0.6
      },
      "name": "BlocksPaper"
    }
  ],
  "meshes": [
    {
      "primitives": [
        {
          "mode": 4,
          "attributes": {
            "COLOR_0": 0,
            "NORMAL": 1,
            "POSITION": 2
          },
          "indices": 3,
          "material": 0
        }
      ]
    }
  ],
  "cameras": [
    {
      "type": "perspective",
      "perspective": {
        "aspectRatio": 1,
        "yfov": 0.7853981633974483,
        "zfar": 2000000,
        "znear": 0.1000000014901161
      }
    }
  ]
}