{
  "asset": {
    "version": "2.0",
    "generator": "THREE.GLTFExporter"
  },
  "scenes": [
    {
      "nodes": [
        4
      ]
    }
  ],
  "scene": 0,
  "nodes": [
    {
      "matrix": [
        0.6568295798924918,
        0.17599668488509296,
        0,
        0,
        -0.17599668488509296,
        0.6568295798924918,
        0,
        0,
        0,
        0,
        0.68,
        0,
        -0.06644047,
        0.08458643,
        -0.07729451,
        1
      ],
      "name": "crystal",
      "mesh": 0
    },
    {
      "matrix": [
        0.5057588151928928,
        -0.1355174577246213,
        0,
        0,
        0.1355174577246213,
        0.5057588151928928,
        0,
        0,
        0,
        0,
        0.5236,
        0,
        0.184529424,
        0.0174612068,
        0.122705482,
        1
      ],
      "name": "crystal",
      "mesh": 1
    },
    {
      "matrix": [
        0.5990236447937604,
        0,
        -0.8007313374221451,
        0,
        0,
        1,
        0,
        0,
        0.8007313374221451,
        0,
        0.5990236447937604,
        0,
        0.164937541,
        0.005264618,
        -0.115897827,
        1
      ],
      "name": "crystal",
      "mesh": 2
    },
    {
      "matrix": [
        1.00924337,
        0,
        0,
        0,
        0,
        1,
        0,
        0,
        0,
        0,
        1.06966388,
        0,
        -7.219114e-16,
        0,
        0,
        1
      ],
      "name": "rocks",
      "mesh": 3
    },
    {
      "name": "detail_crystalLarge",
      "children": [
        0,
        1,
        2,
        3
      ]
    }
  ],
  "bufferViews": [
    {
      "buffer": 0,
      "byteOffset": 0,
      "byteLength": 672,
      "target": 34962,
      "byteStride": 12
    },
    {
      "buffer": 0,
      "byteOffset": 672,
      "byteLength": 672,
      "target": 34962,
      "byteStride": 12
    },
    {
      "buffer": 0,
      "byteOffset": 1344,
      "byteLength": 448,
      "target": 34962,
      "byteStride": 8
    },
    {
      "buffer": 0,
      "byteOffset": 1792,
      "byteLength": 336,
      "target": 34963
    },
    {
      "buffer": 0,
      "byteOffset": 2128,
      "byteLength": 672,
      "target": 34962,
      "byteStride": 12
    },
    {
      "buffer": 0,
      "byteOffset": 2800,
      "byteLength": 672,
      "target": 34962,
      "byteStride": 12
    },
    {
      "buffer": 0,
      "byteOffset": 3472,
      "byteLength": 448,
      "target": 34962,
      "byteStride": 8
    },
    {
      "buffer": 0,
      "byteOffset": 3920,
      "byteLength": 336,
      "target": 34963
    },
    {
      "buffer": 0,
      "byteOffset": 4256,
      "byteLength": 672,
      "target": 34962,
      "byteStride": 12
    },
    {
      "buffer": 0,
      "byteOffset": 4928,
      "byteLength": 672,
      "target": 34962,
      "byteStride": 12
    },
    {
      "buffer": 0,
      "byteOffset": 5600,
      "byteLength": 448,
      "target": 34962,
      "byteStride": 8
    },
    {
      "buffer": 0,
      "byteOffset": 6048,
      "byteLength": 336,
      "target": 34963
    },
    {
      "buffer": 0,
      "byteOffset": 6384,
      "byteLength": 2064,
      "target": 34962,
      "byteStride": 12
    },
    {
      "buffer": 0,
      "byteOffset": 8448,
      "byteLength": 2064,
      "target": 34962,
      "byteStride": 12
    },
    {
      "buffer": 0,
      "byteOffset": 10512,
      "byteLength": 1376,
      "target": 34962,
      "byteStride": 8
    },
    {
      "buffer": 0,
      "byteOffset": 11888,
      "byteLength": 1296,
      "target": 34963
    }
  ],
  "buffers": [
    {
      "byteLength": 13184,
      "uri": "data:application/octet-stream;base64,"
    }
  ],
  "accessors": [
    {
      "bufferView": 0,
      "componentType": 5126,
      "count": 56,
      "max": [
        0.16019999980926514,
        0.699999988079071,
        0.16019999980926514
      ],
      "min": [
        -0.16019999980926514,
        0,
        -0.16019999980926514
      ],
      "type": "VEC3"
    },
    {
      "bufferView": 1,
      "componentType": 5126,
      "count": 56,
      "max": [
        1,
        1,
        1
      ],
      "min": [
        -1,
        -1,
        -1
      ],
      "type": "VEC3"
    },
    {
      "bufferView": 2,
      "componentType": 5126,
      "count": 56,
      "max": [
        6.30708646774292,
        4.543307304382324
      ],
      "min": [
        -6.30708646774292,
        -21.44094467163086
      ],
      "type": "VEC2"
    },
    {
      "bufferView": 3,
      "componentType": 5125,
      "count": 84,
      "max": [
        55
      ],
      "min": [
        0
      ],
      "type": "SCALAR"
    },
    {
      "bufferView": 4,
      "componentType": 5126,
      "count": 56,
      "max": [
        0.16019999980926514,
        0.699999988079071,
        0.16019999980926514
      ],
      "min": [
        -0.16019999980926514,
        0,
        -0.16019999980926514
      ],
      "type": "VEC3"
    },
    {
      "bufferView": 5,
      "componentType": 5126,
      "count": 56,
      "max": [
        1,
        1,
        1
      ],
      "min": [
        -1,
        -1,
        -1
      ],
      "type": "VEC3"
    },
    {
      "bufferView": 6,
      "componentType": 5126,
      "count": 56,
      "max": [
        6.30708646774292,
        4.543307304382324
      ],
      "min": [
        -6.30708646774292,
        -21.44094467163086
      ],
      "type": "VEC2"
    },
    {
      "bufferView": 7,
      "componentType": 5125,
      "count": 84,
      "max": [
        55
      ],
      "min": [
        0
      ],
      "type": "SCALAR"
    },
    {
      "bufferView": 8,
      "componentType": 5126,
      "count": 56,
      "max": [
        0.20378591120243073,
        0.37556299567222595,
        0
      ],
      "min": [
        0,
        0,
        -0.1677614450454712
      ],
      "type": "VEC3"
    },
    {
      "bufferView": 9,
      "componentType": 5126,
      "count": 56,
      "max": [
        0.9659258127212524,
        0.9659258127212524,
        1
      ],
      "min": [
        -0.991547167301178,
        -0.9659258127212524,
        -1
      ],
      "type": "VEC3"
    },
    {
      "bufferView": 10,
      "componentType": 5126,
      "count": 56,
      "max": [
        8.023067474365234,
        4.461991310119629
      ],
      "min": [
        -8.031355857849121,
        -11.913294792175293
      ],
      "type": "VEC2"
    },
    {
      "bufferView": 11,
      "componentType": 5125,
      "count": 84,
      "max": [
        55
      ],
      "min": [
        0
      ],
      "type": "SCALAR"
    },
    {
      "bufferView": 12,
      "componentType": 5126,
      "count": 172,
      "max": [
        0.4954206645488739,
        0.41860800981521606,
        0.4674365222454071
      ],
      "min": [
        -0.4954206645488739,
        0,
        -0.4674365222454071
      ],
      "type": "VEC3"
    },
    {
      "bufferView": 13,
      "componentType": 5126,
      "count": 172,
      "max": [
        0.9477971196174622,
        1,
        0.9771528244018555
      ],
      "min": [
        -0.9369633197784424,
        0.17096343636512756,
        -0.786013662815094
      ],
      "type": "VEC3"
    },
    {
      "bufferView": 14,
      "componentType": 5126,
      "count": 172,
      "max": [
        17.739364624023438,
        17.843050003051758
      ],
      "min": [
        -17.34441375732422,
        -14.58102798461914
      ],
      "type": "VEC2"
    },
    {
      "bufferView": 15,
      "componentType": 5125,
      "count": 324,
      "max": [
        171
      ],
      "min": [
        0
      ],
      "type": "SCALAR"
    }
  ],
  "materials": [
    {
      "pbrMetallicRoughness": {
        "baseColorFactor": [
          1,
          0.4862745,
          0.65882355,
          1
        ],
        "metallicFactor": 0,
        "roughnessFactor": 0.5
      },
      "name": "crystal"
    },
    {
      "pbrMetallicRoughness": {
        "baseColorFactor": [
          0.266666681,
          0.709803939,
          0.5529412,
          1
        ],
        "metallicFactor": 1,
        "roughnessFactor": 1
      },
      "name": "foliage"
    }
  ],
  "meshes": [
    {
      "primitives": [
        {
          "mode": 4,
          "attributes": {
            "POSITION": 0,
            "NORMAL": 1,
            "TEXCOORD_0": 2
          },
          "indices": 3,
          "material": 0
        }
      ]
    },
    {
      "primitives": [
        {
          "mode": 4,
          "attributes": {
            "POSITION": 4,
            "NORMAL": 5,
            "TEXCOORD_0": 6
          },
          "indices": 7,
          "material": 0
        }
      ]
    },
    {
      "primitives": [
        {
          "mode": 4,
          "attributes": {
            "POSITION": 8,
            "NORMAL": 9,
            "TEXCOORD_0": 10
          },
          "indices": 11,
          "material": 0
        }
      ]
    },
    {
      "primitives": [
        {
          "mode": 4,
          "attributes": {
            "POSITION": 12,
            "NORMAL": 13,
            "TEXCOORD_0": 14
          },
          "indices": 15,
          "material": 1
        }
      ]
    }
  ]
}